<svg width="102" height="102" viewBox="0 0 102 102" fill="none" xmlns="http://www.w3.org/2000/svg" xmlns:xlink="http://www.w3.org/1999/xlink">
<path d="M64.405,86.351L23.378,86.337L9.481,69.666L14.792,65.559L26.645,79.776L61.206,79.787L71.861,67.427L60.573,54.319L37.958,54.319L21.017,34.649L37.328,15.725L78.672,15.781L92.839,32.774L87.528,36.881L75.402,22.338L40.524,22.293L29.873,34.649L41.161,47.758L63.776,47.758L80.713,67.427L64.405,86.351Z" fill="#000000"/>
<path d="M71.793,102L23.108,102L23.108,95.439L68.622,95.439L93.094,67.441L67.338,37.945L42.1,37.945L42.1,31.381L70.512,31.381L102,67.441L71.793,102Z" fill="#000000"/>
<path d="M59.753,70.675L31.273,70.675L0,34.587L29.999,0L78.935,0L78.935,6.561L33.183,6.561L8.877,34.587L34.461,64.113L59.753,64.113L59.753,70.675Z" fill="#000000"/>
</svg>
